<?xml version="1.0" encoding="utf-8"?>
<!-- Generator: Adobe Illustrator 25.2.0, SVG Export Plug-In . SVG Version: 6.00 Build 0)  -->
<svg version="1.1" id="Layer_1" xmlns="http://www.w3.org/2000/svg" xmlns:xlink="http://www.w3.org/1999/xlink" x="0px" y="0px"
	 viewBox="0 0 30 30" style="enable-background:new 0 0 30 30;" xml:space="preserve">
<style type="text/css">
	.st0{fill:#020302;}
</style>
<path class="st0" d="M26.5,9h-23C2.7,9,2,8.3,2,7.5v0C2,6.7,2.7,6,3.5,6h23C27.3,6,28,6.7,28,7.5v0C28,8.3,27.3,9,26.5,9z"/>
<path class="st0" d="M26.5,17h-23C2.7,17,2,16.3,2,15.5v0C2,14.7,2.7,14,3.5,14h23c0.8,0,1.5,0.7,1.5,1.5v0C28,16.3,27.3,17,26.5,17
	z"/>
<path class="st0" d="M26.5,25h-23C2.7,25,2,24.3,2,23.5v0C2,22.7,2.7,22,3.5,22h23c0.8,0,1.5,0.7,1.5,1.5v0C28,24.3,27.3,25,26.5,25
	z"/>
</svg>
