<?xml version="1.0" encoding="utf-8"?>
<!-- Generator: Adobe Illustrator 25.2.0, SVG Export Plug-In . SVG Version: 6.00 Build 0)  -->
<svg version="1.1" id="Layer_1" xmlns="http://www.w3.org/2000/svg" xmlns:xlink="http://www.w3.org/1999/xlink" x="0px" y="0px"
	 viewBox="0 0 30 30" style="enable-background:new 0 0 30 30;" xml:space="preserve">
<style type="text/css">
	.st0{fill:#222221;}
	.st1{fill:#FFFFFF;}
</style>
<g id="XMLID_1723_">
	<path id="XMLID_1725_" class="st0" d="M15,30L15,30C6.7,30,0,23.3,0,15v0C0,6.7,6.7,0,15,0l0,0c8.3,0,15,6.7,15,15v0
		C30,23.3,23.3,30,15,30z"/>
	<path id="XMLID_1724_" class="st1" d="M7,20c1.5,0.9,3.2,1.5,5,1.5c6.1,0,9.5-5.1,9.3-9.8c0.6-0.5,1.2-1,1.6-1.7
		c-0.6,0.3-1.2,0.4-1.9,0.5c0.7-0.4,1.2-1,1.4-1.8c-0.6,0.4-1.3,0.6-2.1,0.8c-0.6-0.6-1.5-1-2.4-1c-2.1,0-3.7,2-3.2,4
		c-2.7-0.1-5.1-1.4-6.8-3.4c-0.9,1.5-0.4,3.4,1,4.4c-0.5,0-1-0.2-1.5-0.4c0,1.5,1.1,2.9,2.6,3.3c-0.5,0.1-1,0.2-1.5,0.1
		c0.4,1.3,1.6,2.3,3.1,2.3C10.5,19.7,8.7,20.2,7,20z"/>
</g>
</svg>
