<?xml version="1.0" encoding="utf-8"?>
<!-- Generator: Adobe Illustrator 25.2.0, SVG Export Plug-In . SVG Version: 6.00 Build 0)  -->
<svg version="1.1" id="Layer_1" xmlns="http://www.w3.org/2000/svg" xmlns:xlink="http://www.w3.org/1999/xlink" x="0px" y="0px"
	 viewBox="0 0 30 30" style="enable-background:new 0 0 30 30;" xml:space="preserve">
<style type="text/css">
	.st0{fill:#222221;}
	.st1{fill:#FFFFFF;}
</style>
<g id="XMLID_1693_">
	<path id="XMLID_1695_" class="st0" d="M15,30L15,30C6.7,30,0,23.3,0,15l0,0C0,6.7,6.7,0,15,0l0,0c8.3,0,15,6.7,15,15l0,0
		C30.1,23.2,23.3,30,15,30z"/>
	<path id="XMLID_1694_" class="st1" d="M12.7,24h3.6v-9.2h2.5l0.2-3.1h-2.8c0,0,0-1.2,0-1.7c0-0.7,0.2-1,0.9-1c0.6,0,2,0,2,0V5.8
		c0,0-2.1,0-2.5,0c-2.7,0-3.9,1.2-3.9,3.5c0,2,0,2.4,0,2.4h-1.8v3.1h1.9V24z"/>
</g>
</svg>
