<?xml version="1.0" encoding="utf-8"?>
<!-- Generator: Adobe Illustrator 25.2.0, SVG Export Plug-In . SVG Version: 6.00 Build 0)  -->
<svg version="1.1" id="Layer_1" xmlns="http://www.w3.org/2000/svg" xmlns:xlink="http://www.w3.org/1999/xlink" x="0px" y="0px"
	 viewBox="0 0 30 30" style="enable-background:new 0 0 30 30;" xml:space="preserve">
<style type="text/css">
	.st0{fill:#222221;}
	.st1{fill:#FFFFFF;}
</style>
<g id="XMLID_1723_">
	<path id="XMLID_1725_" class="st0" d="M15.1,29.7L15.1,29.7c-8.3,0-15-6.7-15-15v0c0-8.3,6.7-15,15-15l0,0c8.3,0,15,6.7,15,15v0
		C30.1,23,23.3,29.7,15.1,29.7z"/>
	<g>
		<path class="st1" d="M7.7,20.3c1.8-1.8,3.6-3.6,5.5-5.4c2.2,1.8,1.8,1.8,4-0.1c1.7,1.8,3.5,3.6,5.3,5.5
			C17.5,20.3,12.6,20.3,7.7,20.3z"/>
		<path class="st1" d="M22.4,9.2c-2.5,2.1-4.8,4.1-7.2,6.2c-2.5-2-4.9-4-7.5-6.2C12.6,9.2,17.4,9.2,22.4,9.2z"/>
		<path class="st1" d="M12.4,14.2c-1.8,1.8-3.5,3.5-5.3,5.2c0-3.1,0-6.2,0-9.5C8.9,11.3,10.7,12.7,12.4,14.2z"/>
		<path class="st1" d="M23,9.8c0,3.3,0,6.5,0,9.8c-1.8-1.9-3.5-3.6-5.2-5.4C19.5,12.7,21.2,11.3,23,9.8z"/>
	</g>
</g>
</svg>
