<?xml version="1.0" encoding="utf-8"?>
<!-- Generator: Adobe Illustrator 25.2.0, SVG Export Plug-In . SVG Version: 6.00 Build 0)  -->
<svg version="1.1" id="Layer_1" xmlns="http://www.w3.org/2000/svg" xmlns:xlink="http://www.w3.org/1999/xlink" x="0px" y="0px"
	 viewBox="0 0 30 30" style="enable-background:new 0 0 30 30;" xml:space="preserve">
<style type="text/css">
	.st0{fill:#222221;}
	.st1{fill:#FFFFFF;}
</style>
<g id="XMLID_1707_">
	<path id="XMLID_1713_" class="st0" d="M15,30L15,30C6.7,30,0,23.3,0,15l0,0C0,6.7,6.7,0,15,0l0,0c8.3,0,15,6.7,15,15l0,0
		C30.1,23.3,23.3,30,15,30z"/>
	<g id="XMLID_1708_">
		<g id="XMLID_1710_">
			<rect id="XMLID_1712_" x="8.2" y="11.6" class="st1" width="3.1" height="10"/>
			<path id="XMLID_1711_" class="st1" d="M9.7,10.3c1,0,1.8-0.9,1.8-1.8c0-1-0.8-1.8-1.8-1.8S7.9,7.5,7.9,8.4
				C7.9,9.5,8.8,10.3,9.7,10.3z"/>
		</g>
		<path id="XMLID_1709_" class="st1" d="M16.3,16.4c0-1.4,0.6-2.3,1.9-2.3c1.1,0,1.7,0.8,1.7,2.3c0,1.4,0,5.3,0,5.3h3.1
			c0,0,0-3.6,0-6.4c0-2.7-1.5-4-3.6-4s-3,1.7-3,1.7v-1.3h-3v10h3C16.3,21.6,16.3,17.9,16.3,16.4z"/>
	</g>
</g>
</svg>
